<svg class="header__background" xmlns="http://www.w3.org/2000/svg" fill="none" viewBox="0 0 1920 984">
      <path fill="#F2F2F2"
        d="M192.917 960.018C72.546 1009.09-69.8 928.973-131.886 871.004l7.504-847.496L2094.86-16.088c39.29 360.582 114.94 1037.628 16.36 917.1-122.46-149.724-236.46-180.013-362.91-51.165-123.26 125.605-239.35 110.932-361.37 35.537-180.9-111.785-218.12-117.852-366.93-34.932-150.786 84.018-204.302 22.499-393.207-28-208.163-55.647-277.724 73.908-433.886 137.566z" />
      <path fill="url(#paint0_linear)"
        d="M118.81 926.347c-113.895 62.649-264.545-.48-332.914-50.887L-304.58 32.774l2199.8-295.77c80.7 353.626 234.07 1017.393 122.23 909.067-138.94-134.572-255.68-151.484-366.4-8.887-107.92 139.007-224.93 137.847-354.84 77.056-192.6-90.132-230.27-91.859-368.509 7.702-140.067 100.878-200.333 45.956-393.808 17.624C320.694 708.345 266.57 845.07 118.81 926.347z" />
      <path fill="#FF8D24"
        d="M131.448 448.115c-94.24 89.531-255.986 66.749-334.918 35.368l-301.612-792.046L1547.39-1153.54c167.89 321.52 484.88 924.537 349.18 848.182-168.57-94.854-285.78-81.55-356.63 84.497-69.06 161.866-182.53 190.472-323.62 164.682-209.18-38.238-246.054-30.338-354.459 101.078-109.84 133.156-182.083 95.348-376.407 117.102-214.135 23.972-231.745 169.962-354.006 286.114z" />
      <defs>
        <linearGradient id="paint0_linear" x1="364.054" x2="597.072" y1="1133.58" y2="-649.842"
          gradientUnits="userSpaceOnUse">
          <stop stop-color="#FF8D24" />
          <stop offset="1" stop-color="#FFBB37" />
          <stop offset="1" stop-color="#FF9025" />
        </linearGradient>
      </defs>
    </svg>
